<?xml version="1.0" encoding="UTF-8" ?>
<!DOCTYPE svg PUBLIC "-//W3C//DTD SVG 1.1//EN" "http://www.w3.org/Graphics/SVG/1.1/DTD/svg11.dtd">
<svg width="80pt" height="80pt" viewBox="0 0 80 80" version="1.1" xmlns="http://www.w3.org/2000/svg">
<g id="#828282ff">
<path fill="#808080" opacity="1.00" d=" M 37.26 5.31 C 54.28 3.58 71.27 16.14 74.47 32.97 C 78.84 50.70 66.50 70.19 48.76 74.20 C 31.86 78.97 12.68 68.43 7.23 51.83 C 2.32 38.79 6.58 23.16 17.03 14.06 C 22.61 9.08 29.83 6.05 37.26 5.31 M 34.22 18.76 C 34.25 21.59 34.25 24.41 34.22 27.24 C 38.23 27.26 42.25 27.25 46.26 27.25 C 46.25 24.42 46.25 21.58 46.26 18.75 C 42.25 18.74 38.23 18.74 34.22 18.76 M 34.74 30.75 C 34.74 41.41 34.77 52.07 34.73 62.73 C 38.56 62.76 42.40 62.75 46.24 62.76 C 46.28 52.09 46.23 41.42 46.26 30.75 C 42.42 30.74 38.58 30.74 34.74 30.75 Z" />
</g>
</svg>
