<?xml version="1.0" encoding="UTF-8" ?>
<!DOCTYPE svg PUBLIC "-//W3C//DTD SVG 1.1//EN" "http://www.w3.org/Graphics/SVG/1.1/DTD/svg11.dtd">
<svg width="80pt" height="80pt" viewBox="0 0 80 80" version="1.1" xmlns="http://www.w3.org/2000/svg">
<g id="#828282ff">
<path fill="#808080" opacity="1.00" d=" M 5.23 18.29 C 28.17 18.03 51.14 18.23 74.09 18.19 C 76.72 17.90 79.10 20.31 78.81 22.93 C 78.84 35.63 78.84 48.34 78.81 61.04 C 79.11 63.69 76.71 66.11 74.06 65.81 C 51.67 65.85 29.27 65.80 6.88 65.83 C 4.11 66.24 1.38 63.90 1.70 61.05 C 1.67 48.37 1.68 35.69 1.70 23.01 C 1.48 20.86 3.02 18.57 5.23 18.29 M 7.37 28.03 C 7.12 33.37 7.37 38.72 7.29 44.06 C 7.44 48.45 6.84 52.90 7.77 57.23 C 15.28 57.18 22.79 57.45 30.28 57.14 C 30.59 56.95 31.20 56.58 31.51 56.39 C 32.02 47.62 31.54 38.79 31.74 29.99 C 31.71 28.64 31.93 26.23 29.90 26.36 C 23.60 26.15 17.29 26.36 10.98 26.26 C 9.69 26.32 7.25 26.04 7.37 28.03 M 36.57 31.55 C 36.12 32.52 36.09 33.49 36.49 34.46 C 38.23 35.16 40.19 34.90 42.02 34.76 C 43.01 33.96 42.52 32.51 42.64 31.43 C 40.62 31.37 38.57 31.12 36.57 31.55 M 45.54 31.38 C 45.33 32.46 45.17 33.55 45.04 34.65 C 47.28 35.07 49.59 35.27 51.80 34.57 C 51.72 33.55 51.61 32.54 51.46 31.53 C 49.48 31.46 47.51 31.43 45.54 31.38 M 54.14 31.76 C 54.16 32.51 54.20 34.02 54.23 34.78 C 57.26 35.23 60.33 35.25 63.39 35.20 C 63.45 34.07 64.13 32.59 63.03 31.73 C 60.08 31.30 57.09 31.48 54.14 31.76 M 66.66 35.29 C 68.59 35.22 70.52 35.25 72.45 35.30 C 72.58 34.07 72.61 32.83 72.48 31.59 C 70.59 31.62 68.69 31.58 66.80 31.77 C 65.45 32.42 66.64 34.21 66.66 35.29 M 37.81 44.72 C 40.80 44.33 46.37 46.50 46.11 41.61 C 43.77 41.27 41.38 41.03 39.02 41.31 C 37.10 41.13 38.04 43.63 37.81 44.72 M 47.86 41.63 C 48.12 42.39 48.63 43.90 48.89 44.66 C 51.74 44.87 54.59 44.73 57.44 44.84 C 57.65 43.61 57.65 42.39 57.45 41.17 C 54.25 41.22 51.03 41.12 47.86 41.63 M 60.37 41.27 C 60.30 42.41 60.29 43.56 60.32 44.70 C 62.43 44.71 64.53 44.71 66.64 44.72 C 66.70 43.58 66.72 42.44 66.69 41.30 C 64.58 41.29 62.47 41.30 60.37 41.27 M 69.31 41.36 C 69.28 42.46 69.29 43.56 69.34 44.65 C 70.44 44.70 71.55 44.70 72.66 44.65 C 72.71 43.55 72.71 42.44 72.67 41.34 C 71.55 41.30 70.43 41.31 69.31 41.36 Z" />
<path fill="#808080" opacity="1.00" d=" M 17.45 31.39 C 21.13 29.01 25.29 33.23 25.29 36.95 C 25.67 40.46 22.96 44.82 18.99 43.99 C 13.25 43.05 12.67 34.04 17.45 31.39 Z" />
<path fill="#808080" opacity="1.00" d=" M 10.06 55.84 C 10.29 50.37 14.13 44.71 20.00 44.51 C 25.63 45.13 29.22 50.52 29.46 55.88 C 22.99 55.88 16.53 55.93 10.06 55.84 Z" />
</g>
</svg>
