<?xml version="1.0" encoding="UTF-8" ?>
<!DOCTYPE svg PUBLIC "-//W3C//DTD SVG 1.1//EN" "http://www.w3.org/Graphics/SVG/1.1/DTD/svg11.dtd">
<svg width="196pt" height="196pt" viewBox="0 0 196 196" version="1.1" xmlns="http://www.w3.org/2000/svg">
  <defs>
    <linearGradient id="grad1" x1="0%" y1="0%" x2="0%" y2="100%">
      <stop offset="0%" style="stop-color:#4a4a4a;stop-opacity:1" />
      <stop offset="100%" style="stop-color:#2c2c2c;stop-opacity:1" />
    </linearGradient>
    <linearGradient id="grad2" x1="0%" y1="0%" x2="0%" y2="100%">
      <stop offset="0%" style="stop-color:#BBEF3B;stop-opacity:1" />
      <stop offset="100%" style="stop-color:#5BA214;stop-opacity:1" />
    </linearGradient>
  </defs>

<g id="#3a3a3aff">
<path fill="url(#grad1)" opacity="1.00" d=" M 97.30 0.00 L 98.70 0.00 C 122.51 0.08 146.12 9.23 163.71 25.29 C 183.28 42.78 195.09 68.39 196.00 94.59 L 196.00 98.59 C 195.90 121.70 187.34 144.64 172.13 162.06 C 154.00 183.29 126.49 195.93 98.58 196.00 L 97.48 196.00 C 71.49 195.91 45.75 185.04 27.75 166.27 C 11.01 149.30 1.18 126.02 0.00 102.27 L 0.00 93.94 C 1.12 68.92 12.00 44.47 30.22 27.23 C 48.01 10.01 72.54 0.07 97.30 0.00 M 65.93 54.87 C 52.72 67.14 44.76 85.00 44.90 103.07 C 45.35 114.20 48.73 125.54 55.72 134.32 C 59.94 136.61 65.03 137.27 69.75 136.56 C 74.30 135.57 76.44 130.95 78.14 127.10 C 82.89 115.53 85.10 103.14 87.37 90.91 C 89.99 76.60 89.75 61.66 94.94 47.89 C 97.53 41.37 101.65 35.52 106.50 30.47 C 108.93 28.18 111.51 25.66 114.92 25.04 C 112.57 32.29 109.48 39.33 108.23 46.89 C 104.85 65.99 101.83 85.19 97.03 104.00 C 94.45 113.82 91.89 124.20 84.93 131.97 C 79.63 138.73 71.33 142.82 62.74 142.93 C 65.81 145.97 69.32 148.51 72.60 151.30 C 74.50 152.73 75.49 155.34 74.51 157.61 C 71.25 164.62 64.80 169.81 57.58 172.36 C 61.82 174.89 66.17 177.22 70.38 179.79 C 77.97 173.25 84.86 165.80 90.15 157.26 C 108.50 158.12 125.14 147.11 136.54 133.54 C 145.17 123.08 152.67 109.97 150.89 95.91 C 149.63 82.23 142.10 70.42 137.23 57.88 C 134.23 46.81 138.84 35.71 140.20 24.77 C 139.87 24.62 139.20 24.33 138.87 24.18 C 132.33 26.31 126.28 29.73 120.22 32.94 C 119.38 27.22 119.27 21.40 120.45 15.72 C 101.32 27.32 82.20 39.37 65.93 54.87 Z" />
</g>
<g id="#80c023ff">
<path fill="url(#grad2)" opacity="1.00" d=" M 65.93 54.87 C 82.20 39.37 101.32 27.32 120.45 15.72 C 119.27 21.40 119.38 27.22 120.22 32.94 C 120.92 38.43 122.56 43.74 124.23 49.00 C 126.65 56.26 128.98 63.59 132.48 70.41 C 136.41 78.23 140.53 86.22 141.56 95.05 C 142.72 105.34 141.22 116.41 135.09 125.01 C 126.99 136.73 114.76 144.78 102.34 151.32 C 98.39 153.53 93.96 154.79 90.15 157.26 C 84.86 165.80 77.97 173.25 70.38 179.79 C 66.17 177.22 61.82 174.89 57.58 172.36 C 64.80 169.81 71.25 164.62 74.51 157.61 C 75.49 155.34 74.50 152.73 72.60 151.30 C 69.32 148.51 65.81 145.97 62.74 142.93 C 71.33 142.82 79.63 138.73 84.93 131.97 C 91.89 124.20 94.45 113.82 97.03 104.00 C 101.83 85.19 104.85 65.99 108.23 46.89 C 109.48 39.33 112.57 32.29 114.92 25.04 C 111.51 25.66 108.93 28.18 106.50 30.47 C 101.65 35.52 97.53 41.37 94.94 47.89 C 89.75 61.66 89.99 76.60 87.37 90.91 C 85.10 103.14 82.89 115.53 78.14 127.10 C 76.44 130.95 74.30 135.57 69.75 136.56 C 65.03 137.27 59.94 136.61 55.72 134.32 C 48.73 125.54 45.35 114.20 44.90 103.07 C 44.76 85.00 52.72 67.14 65.93 54.87 Z" />
</g>
<g id="#699e8dff">
<path fill="#699e8d" opacity="1.00" d=" M 120.22 32.94 C 126.28 29.73 132.33 26.31 138.87 24.18 C 139.20 24.33 139.87 24.62 140.20 24.77 C 138.84 35.71 134.23 46.81 137.23 57.88 C 142.10 70.42 149.63 82.23 150.89 95.91 C 152.67 109.97 145.17 123.08 136.54 133.54 C 125.14 147.11 108.50 158.12 90.15 157.26 C 93.96 154.79 98.39 153.53 102.34 151.32 C 114.76 144.78 126.99 136.73 135.09 125.01 C 141.22 116.41 142.72 105.34 141.56 95.05 C 140.53 86.22 136.41 78.23 132.48 70.41 C 128.98 63.59 126.65 56.26 124.23 49.00 C 122.56 43.74 120.92 38.43 120.22 32.94 Z" />
</g>
</svg>
