<?xml version="1.0" encoding="utf-8"?>
<!-- Generator: Adobe Illustrator 19.0.0, SVG Export Plug-In . SVG Version: 6.00 Build 0)  -->
<svg version="1.1" id="Layer_1" xmlns="http://www.w3.org/2000/svg" xmlns:xlink="http://www.w3.org/1999/xlink" x="0px" y="0px"
	 viewBox="0 0 324 52" style="enable-background:new 0 0 324 52;" xml:space="preserve">
<style type="text/css">
	.st0{fill:#799900;}
	.st1{clip-path:url(#XMLID_103_);fill:url(#XMLID_104_);}
	.st2{clip-path:url(#XMLID_105_);fill:url(#XMLID_106_);}
	.st3{fill:#C4D600;}
</style>
<g>
	<polygon id="XMLID_101_" class="st0" points="211,17.6 214.8,17.6 220.2,34.2 220.3,34.2 225.7,17.6 228.9,17.6 234.4,34.2 
		234.5,34.2 239.9,17.6 243.5,17.6 236,39.3 232.7,39.3 227.3,22.7 227.2,22.7 221.9,39.3 218.6,39.3 	"/>
	<path class="st0" d="M47,39.4L59.2,9.8h3.1l12.1,29.6h-4l-3.5-8.7H54.5L51,39.4H47z M60.7,14.1l-5.5,13.7h10.8L60.7,14.1z"/>
	<g>
		<path id="XMLID_98_" class="st0" d="M76.5,45.4c0.8,0.1,1.4,0.1,2,0.1c0.3,0,0.5-0.1,0.7-0.2c0.2-0.1,0.5-0.4,0.8-0.8
			c0.3-0.4,0.6-1,1-1.8c0.4-0.8,0.8-1.9,1.3-3.3L73,17.6h3.8l7.4,18.5L91,17.6h3.5L83.8,45.1c-0.5,1.3-1.2,2.2-2.2,2.8
			c-0.9,0.6-2.1,0.9-3.3,0.9c-0.3,0-0.6,0-0.9,0c-0.3,0-0.6-0.1-0.9-0.2V45.4z"/>
		<path id="XMLID_97_" class="st0" d="M97.5,9h3.7v24.8c0,0.8,0.2,1.4,0.6,1.9c0.4,0.5,1,0.7,1.8,0.7c0.3,0,0.7,0,1.1-0.1
			c0.4-0.1,0.8-0.2,1.2-0.4l0.6,3c-0.6,0.3-1.3,0.5-2.2,0.6c-0.8,0.2-1.6,0.3-2.2,0.3c-1.4,0-2.5-0.4-3.4-1.2
			c-0.8-0.8-1.2-1.9-1.2-3.4V9z"/>
		<path class="st0" d="M115.7,39.8c-1.1,0-2.1-0.2-3-0.5c-0.9-0.3-1.7-0.8-2.4-1.4c-0.7-0.6-1.2-1.3-1.6-2.1
			c-0.4-0.8-0.6-1.7-0.6-2.6c0-1,0.2-2,0.7-2.8c0.4-0.8,1.1-1.6,1.9-2.2c0.8-0.6,1.8-1.1,2.9-1.4c1.1-0.3,2.4-0.5,3.7-0.5
			c1.1,0,2.1,0.1,3.2,0.3c1.1,0.2,2,0.5,2.9,0.8v-1.8c0-1.8-0.5-3.2-1.5-4.2c-1-1-2.4-1.5-4.3-1.5c-2.2,0-4.5,0.8-6.9,2.5l-1.2-2.4
			c1.4-0.9,2.8-1.7,4.2-2.1c1.4-0.5,2.8-0.7,4.3-0.7c2.8,0,5,0.8,6.6,2.3c1.6,1.5,2.4,3.7,2.4,6.5v8.9c0,0.9,0.4,1.3,1.2,1.3v3.2
			c-0.3,0.1-0.5,0.1-0.8,0.1c-0.2,0-0.5,0-0.7,0c-0.6,0-1.2-0.2-1.8-0.5c-0.6-0.3-0.9-0.9-1-1.7l-0.1-1.5c-0.5,0.7-1.1,1.2-1.7,1.7
			c-0.6,0.5-1.3,0.9-2,1.3c-0.7,0.3-1.5,0.6-2.2,0.7C117.2,39.7,116.5,39.8,115.7,39.8 M116.7,37.1c1.2,0,2.3-0.2,3.4-0.8
			c1.1-0.5,2-1.1,2.6-1.8c0.5-0.6,0.8-1.2,0.8-1.7v-3.2c-0.9-0.3-1.8-0.6-2.7-0.8c-1-0.2-1.9-0.3-2.8-0.3c-1.9,0-3.4,0.4-4.5,1.1
			c-1.1,0.8-1.7,1.8-1.7,3.1c0,0.6,0.1,1.1,0.3,1.6c0.2,0.5,0.5,1,1,1.4c0.4,0.4,0.9,0.7,1.5,0.9C115.2,36.9,115.9,37.1,116.7,37.1"
			/>
		<polygon id="XMLID_94_" class="st0" points="147.2,16.8 147.2,39.4 143.5,39.4 143.5,9.8 146.4,9.8 164.7,32.9 164.7,9.8 
			168.5,9.8 168.5,39.4 165.3,39.4 		"/>
		<path class="st0" d="M183.9,39.8c-1.6,0-3.1-0.3-4.5-0.9c-1.4-0.6-2.5-1.4-3.5-2.4c-1-1-1.7-2.2-2.3-3.6c-0.5-1.4-0.8-2.8-0.8-4.4
			c0-1.5,0.3-3,0.8-4.3c0.5-1.4,1.3-2.6,2.3-3.6c1-1,2.2-1.8,3.5-2.4c1.4-0.6,2.9-0.9,4.5-0.9c1.6,0,3.1,0.3,4.5,0.9
			c1.3,0.6,2.5,1.4,3.4,2.4c0.9,1,1.7,2.2,2.2,3.5c0.5,1.3,0.8,2.7,0.8,4.2c0,0.3,0,0.6,0,0.8c0,0.3,0,0.4-0.1,0.6h-18.1
			c0.1,1.1,0.3,2.1,0.7,3c0.4,0.9,1,1.7,1.6,2.3c0.7,0.6,1.4,1.1,2.3,1.5c0.8,0.4,1.7,0.5,2.7,0.5c0.7,0,1.3-0.1,2-0.3
			c0.6-0.2,1.2-0.4,1.8-0.7c0.6-0.3,1-0.7,1.5-1.1c0.4-0.4,0.8-0.9,1-1.5l3.2,0.9c-0.4,0.8-0.9,1.5-1.5,2.2
			c-0.6,0.7-1.4,1.2-2.2,1.7c-0.8,0.5-1.7,0.9-2.7,1.1C186,39.7,185,39.8,183.9,39.8 M191.3,27.1c-0.1-1-0.3-2-0.8-2.9
			c-0.4-0.9-1-1.6-1.6-2.2c-0.7-0.6-1.4-1.1-2.3-1.4c-0.9-0.3-1.8-0.5-2.8-0.5c-1,0-1.9,0.2-2.8,0.5c-0.9,0.3-1.6,0.8-2.3,1.5
			c-0.6,0.6-1.2,1.4-1.6,2.2c-0.4,0.9-0.6,1.8-0.7,2.8H191.3z"/>
		<path id="XMLID_91_" class="st0" d="M209.9,38.3c-0.2,0.1-0.5,0.2-0.9,0.4c-0.4,0.2-0.8,0.3-1.2,0.5c-0.5,0.2-1,0.3-1.5,0.4
			c-0.5,0.1-1.1,0.1-1.7,0.1c-1.3,0-2.5-0.4-3.5-1.1c-1-0.7-1.5-1.9-1.5-3.4V20.5h-3v-2.9h3v-7.3h3.7v7.3h4.9v2.9h-4.9V34
			c0.1,0.8,0.3,1.4,0.8,1.8c0.5,0.4,1,0.5,1.7,0.5c0.7,0,1.4-0.1,2-0.4c0.6-0.2,1-0.4,1.2-0.6L209.9,38.3z"/>
		<path class="st0" d="M254.6,39.8c-1.6,0-3.1-0.3-4.5-0.9c-1.3-0.6-2.5-1.4-3.5-2.5c-1-1-1.7-2.2-2.2-3.6c-0.5-1.4-0.8-2.8-0.8-4.3
			c0-1.5,0.3-3,0.8-4.3c0.5-1.4,1.3-2.6,2.3-3.6c1-1,2.1-1.8,3.5-2.5c1.3-0.6,2.8-0.9,4.4-0.9c1.6,0,3.1,0.3,4.5,0.9
			c1.4,0.6,2.5,1.4,3.5,2.5c1,1,1.7,2.2,2.3,3.6c0.5,1.4,0.8,2.8,0.8,4.3c0,1.5-0.3,2.9-0.8,4.3c-0.5,1.4-1.3,2.6-2.3,3.6
			c-1,1-2.1,1.8-3.5,2.5C257.7,39.5,256.2,39.8,254.6,39.8 M247.4,28.6c0,1.1,0.2,2.2,0.6,3.2c0.4,1,0.9,1.8,1.5,2.5
			c0.7,0.7,1.4,1.3,2.3,1.7c0.9,0.4,1.8,0.6,2.8,0.6c1,0,1.9-0.2,2.8-0.6c0.9-0.4,1.6-1,2.3-1.7c0.7-0.7,1.2-1.6,1.6-2.6
			c0.4-1,0.6-2,0.6-3.2c0-1.1-0.2-2.2-0.6-3.1c-0.4-1-0.9-1.8-1.6-2.6c-0.7-0.7-1.4-1.3-2.3-1.7c-0.9-0.4-1.8-0.6-2.8-0.6
			c-1,0-1.9,0.2-2.8,0.6c-0.9,0.4-1.6,1-2.3,1.8c-0.7,0.7-1.2,1.6-1.5,2.6C247.6,26.4,247.4,27.5,247.4,28.6"/>
		<path id="XMLID_88_" class="st0" d="M280.7,20.9c-1.8,0.1-3.5,0.5-4.9,1.4c-1.4,0.9-2.4,2.1-3,3.7v13.4h-3.7V17.7h3.4v5
			c0.7-1.5,1.7-2.7,3-3.7c1.2-1,2.5-1.5,3.9-1.5h0.7c0.2,0,0.4,0,0.5,0V20.9z"/>
		<polygon id="XMLID_87_" class="st0" points="300.4,39.4 292.9,28.8 288.7,32.7 288.7,39.4 285,39.4 285,9 288.7,9 288.7,29 
			299.9,17.7 303.9,17.7 295.2,26.7 304.3,39.4 		"/>
		<path id="XMLID_86_" class="st0" d="M314.9,39.8c-1.8,0-3.5-0.3-5.2-0.8c-1.7-0.5-3.2-1.3-4.4-2.4l1.6-2.5c1.3,1,2.6,1.7,3.8,2.2
			c1.3,0.5,2.6,0.7,4,0.7c1.6,0,2.8-0.3,3.8-0.9c0.9-0.6,1.4-1.5,1.4-2.6c0-0.5-0.1-1-0.4-1.4c-0.2-0.4-0.6-0.7-1.1-1
			c-0.5-0.3-1.1-0.5-1.9-0.8c-0.8-0.2-1.7-0.5-2.7-0.7c-1.3-0.3-2.4-0.7-3.4-1c-0.9-0.3-1.7-0.7-2.3-1.1c-0.6-0.4-1.1-0.9-1.3-1.5
			c-0.3-0.6-0.4-1.3-0.4-2.2c0-1.1,0.2-2,0.6-2.9c0.4-0.8,1-1.6,1.8-2.1c0.7-0.6,1.6-1,2.6-1.3c1-0.3,2.1-0.4,3.3-0.4
			c1.6,0,3.2,0.3,4.6,0.8c1.4,0.5,2.6,1.2,3.6,2.1l-1.7,2.2c-0.9-0.8-1.9-1.4-3.1-1.8c-1.1-0.4-2.3-0.6-3.5-0.6
			c-1.3,0-2.5,0.3-3.4,0.9c-0.9,0.6-1.4,1.5-1.4,2.7c0,0.5,0.1,0.9,0.3,1.2c0.2,0.3,0.5,0.6,0.9,0.9c0.4,0.3,1,0.5,1.6,0.7
			c0.7,0.2,1.4,0.4,2.4,0.6c1.4,0.3,2.7,0.7,3.8,1c1.1,0.3,2,0.8,2.7,1.2c0.7,0.5,1.2,1,1.6,1.7c0.3,0.6,0.5,1.4,0.5,2.3
			c0,2-0.8,3.6-2.3,4.8C319.6,39.2,317.5,39.8,314.9,39.8"/>
	</g>
	<g>
		<defs>
			<path id="XMLID_84_" d="M20.1,5.5C20.1,5.5,20.1,5.4,20.1,5.5C20.1,5.4,20.1,5.5,20.1,5.5"/>
		</defs>
		<clipPath id="XMLID_103_">
			<use xlink:href="#XMLID_84_"  style="overflow:visible;"/>
		</clipPath>
		
			<linearGradient id="XMLID_104_" gradientUnits="userSpaceOnUse" x1="-238.435" y1="323.8993" x2="-237.2271" y2="323.8993" gradientTransform="matrix(-15.2997 -15.2997 -15.2997 15.2997 1348.1193 -8577.6865)">
			<stop  offset="0" style="stop-color:#73984A"/>
			<stop  offset="0.2457" style="stop-color:#82A43C"/>
			<stop  offset="0.7165" style="stop-color:#A9C118"/>
			<stop  offset="1" style="stop-color:#C4D600"/>
		</linearGradient>
		<polygon id="XMLID_85_" class="st1" points="20.1,5.5 20.1,5.5 20.1,5.4 20.2,5.5 		"/>
	</g>
	<g>
		<defs>
			<path id="XMLID_82_" d="M22.8,1.2l-2.8,4.2c0.1-0.1,0.2-0.1,0.2,0c0,0,0,0.1,0,0.1c0,0,3.2-3.7,3.3-4.2c0-0.2-0.1-0.2-0.3-0.2
				C23,1.1,22.9,1.1,22.8,1.2"/>
		</defs>
		<clipPath id="XMLID_105_">
			<use xlink:href="#XMLID_82_"  style="overflow:visible;"/>
		</clipPath>
		
			<linearGradient id="XMLID_106_" gradientUnits="userSpaceOnUse" x1="-248.4493" y1="316.8043" x2="-247.2415" y2="316.8043" gradientTransform="matrix(-8.148 -4.237 -4.237 8.148 -659.2902 -3630.1333)">
			<stop  offset="0" style="stop-color:#73984A"/>
			<stop  offset="0.2457" style="stop-color:#82A43C"/>
			<stop  offset="0.7165" style="stop-color:#A9C118"/>
			<stop  offset="1" style="stop-color:#C4D600"/>
		</linearGradient>
		<polygon id="XMLID_83_" class="st2" points="22.7,6.9 18.1,4.6 20.7,-0.3 25.2,2 		"/>
	</g>
	<g>
		<path id="XMLID_81_" class="st0" d="M30.4,25.8C29.9,19.9,26.5,14.5,25,10c-0.4-1.2-0.7-2.3-0.9-3.3c-0.1-0.6-0.2-1.1-0.3-1.5
			c-0.4-2-0.4-3.4-0.4-3.8c0-0.2-0.2-0.3-0.5-0.2c-0.3,0.4-2.7,4-2.8,4.2c0,0,0,0,0,0c0,0,0,0,0,0.1c0,0,0,0.1,0,0.1
			c-0.3,0.8-4.3,8.9-4.9,15.2c-0.6,6.3,0.2,8.9-0.5,13.3c-0.7,4.4-4.2,9-4.3,9.1c-0.8,1-4.2,4.4-6.5,5.2c0,0,0,0.7,0.6,1.4
			c0.6,0.7,2.6,1.1,2.6,1.1s6.2-6.5,6.5-6.9c0-0.1,0.1-0.1,0.1-0.1c0,0,1.3-0.4,3.2-1.3C22.1,40.2,31.2,34.7,30.4,25.8"/>
		<path id="XMLID_80_" class="st3" d="M22.9,1.2c0,0-0.1,0-0.1,0.1C20,2.8,8.6,9.7,4.4,15.5c-4,5.4-7,16.6,2,24.7
			c0.6,0.5,2.5,2.2,2.5,2.2s2.6-1.8,3.2-6.8c0.5-5-0.6-9.1,0.5-15.4c1.4-8,6.8-14.1,7.5-14.8c0,0,0,0,0,0c0,0,0,0,0,0
			C20.3,5.2,22.9,1.2,22.9,1.2"/>
		<path id="XMLID_79_" class="st3" d="M32,12.6c-0.2-1.3-0.4-2.4-0.4-3.4c-0.3-3,0-6.2,0.1-6.7c0.1-0.3-0.3-0.3-0.6-0.2
			c-0.8,0.3-3.6,2.2-5.7,3.1c0.1,0.3,0.1,0.5,0.2,0.8c0.2,1,0.5,2.1,0.9,3.1c0.4,1.4,1.1,2.9,1.8,4.4c1.5,3.5,3.3,7.5,3.7,11.8
			c0,0.4,0.1,0.9,0.1,1.3c0,1.4-0.2,2.7-0.6,4c-1.6,5.4-6.4,9.3-10.7,11.7c-0.1,0.1-1.1,1.1,1.4-0.2c5.2-2.5,12.5-7.6,12.9-14.6
			C35.4,21.9,32.8,17.2,32,12.6"/>
	</g>
</g>
</svg>
