<?xml version="1.0" encoding="UTF-8" ?>
<!DOCTYPE svg PUBLIC "-//W3C//DTD SVG 1.1//EN" "http://www.w3.org/Graphics/SVG/1.1/DTD/svg11.dtd">
<svg width="80pt" height="80pt" viewBox="0 0 80 80" version="1.1" xmlns="http://www.w3.org/2000/svg">
<g id="#626262c2">
<path fill="#808080" opacity="0.76" d=" M 13.26 21.29 C 15.16 17.22 20.02 13.97 24.56 15.64 C 27.75 16.60 29.73 19.44 31.36 22.16 C 28.00 26.65 26.91 32.47 28.36 37.88 C 25.55 40.04 21.72 41.21 18.36 39.54 C 11.89 36.36 10.06 27.41 13.26 21.29 Z" />
<path fill="#808080" opacity="0.76" d=" M 49.03 22.66 C 50.80 18.44 54.86 14.49 59.79 15.29 C 66.26 16.55 69.63 23.92 68.60 30.00 C 67.98 35.25 63.73 40.70 58.02 40.33 C 55.55 40.36 53.60 38.78 51.72 37.41 C 53.03 32.34 51.96 26.97 49.03 22.66 Z" />
<path fill="#808080" opacity="0.76" d=" M 14.40 43.41 C 20.25 39.87 27.92 41.26 32.90 45.67 C 26.30 49.04 22.05 55.63 20.58 62.77 C 15.06 62.75 9.53 62.77 4.01 62.72 C 4.54 55.25 7.59 47.29 14.40 43.41 Z" />
<path fill="#808080" opacity="0.76" d=" M 47.38 45.83 C 52.33 41.46 59.87 39.79 65.77 43.24 C 72.80 47.03 75.95 55.15 76.49 62.75 C 70.80 62.76 65.11 62.74 59.42 62.77 C 57.96 55.75 53.85 49.22 47.38 45.83 Z" />
</g>
<g id="#828282ff">
<path fill="#808080" opacity="1.00" d=" M 37.50 20.66 C 45.17 18.33 51.23 27.10 50.22 34.05 C 50.05 40.48 43.92 47.33 37.11 44.83 C 27.14 41.00 27.36 24.16 37.50 20.66 Z" />
<path fill="#808080" opacity="1.00" d=" M 30.55 49.65 C 35.89 45.35 44.11 45.34 49.45 49.65 C 55.08 53.88 57.51 60.99 57.89 67.80 C 45.96 67.84 34.03 67.84 22.11 67.80 C 22.49 60.99 24.92 53.88 30.55 49.65 Z" />
</g>
</svg>
