<?xml version="1.0" encoding="UTF-8" ?>
<!DOCTYPE svg PUBLIC "-//W3C//DTD SVG 1.1//EN" "http://www.w3.org/Graphics/SVG/1.1/DTD/svg11.dtd">
<svg width="80pt" height="80pt" viewBox="0 0 80 80" version="1.1" xmlns="http://www.w3.org/2000/svg">
<g id="#828282ff">
<path fill="#808080" opacity="1.00" d=" M 31.42 1.54 C 39.41 -1.00 47.90 0.66 55.55 3.50 C 66.78 8.17 75.75 18.23 78.66 30.08 C 80.87 38.59 80.20 47.79 76.85 55.91 C 72.10 67.04 62.05 75.88 50.24 78.72 C 39.32 81.45 27.18 79.60 17.87 73.16 C 9.68 67.53 3.50 58.83 1.52 49.03 C -4.04 28.59 10.67 5.52 31.42 1.54 M 36.33 10.29 C 21.53 11.97 9.22 26.06 10.12 41.04 C 9.98 57.08 24.93 71.26 40.93 70.43 C 57.23 70.54 71.57 55.25 70.43 38.98 C 70.19 21.90 53.24 7.57 36.33 10.29 Z" />
<path fill="#808080" opacity="1.00" d=" M 38.36 12.26 C 40.11 11.06 43.29 11.90 43.44 14.25 C 43.67 16.55 43.85 18.97 43.16 21.21 C 42.62 22.92 40.59 22.93 39.13 22.74 C 36.63 22.17 36.93 18.96 36.80 16.98 C 37.01 15.41 36.71 13.14 38.36 12.26 Z" />
<path fill="#808080" opacity="1.00" d=" M 22.43 18.43 C 25.41 17.63 27.42 21.14 29.23 23.00 C 31.25 25.25 28.65 28.61 25.98 28.29 C 23.43 26.81 21.38 24.54 19.75 22.11 C 19.29 20.39 21.04 19.02 22.43 18.43 Z" />
<path fill="#808080" opacity="1.00" d=" M 56.55 18.44 C 58.67 17.57 61.52 19.83 61.28 22.07 C 59.63 24.51 57.58 26.80 55.02 28.29 C 52.65 28.54 50.06 25.85 51.42 23.54 C 52.75 21.51 54.54 19.78 56.55 18.44 Z" />
<path fill="#808080" opacity="1.00" d=" M 45.09 20.97 C 45.50 19.63 46.64 18.91 48.02 19.35 C 48.42 20.49 48.62 21.68 48.60 22.89 C 48.55 30.86 47.79 38.81 46.16 46.61 C 47.96 49.29 49.54 52.74 48.13 55.94 C 47.27 58.63 44.29 59.49 42.51 61.43 C 40.50 63.70 36.90 62.84 34.78 61.22 C 33.49 57.95 30.61 54.99 31.23 51.26 C 31.75 48.12 34.39 46.10 36.87 44.46 C 38.72 36.35 41.55 28.49 45.09 20.97 M 38.28 45.38 C 35.49 47.23 31.76 50.00 33.02 53.85 C 34.17 56.05 34.82 58.67 36.50 60.50 C 40.46 62.82 43.37 58.32 46.21 56.24 C 48.04 53.19 46.40 49.56 44.47 46.99 C 46.19 38.40 47.12 29.65 46.88 20.88 C 43.10 28.69 40.22 36.92 38.28 45.38 Z" />
<path fill="#808080" opacity="1.00" d=" M 14.22 35.42 C 16.38 35.16 18.60 35.12 20.76 35.45 C 23.77 35.93 23.58 41.01 20.72 41.56 C 18.33 41.86 15.87 41.92 13.50 41.46 C 10.84 40.58 11.33 35.63 14.22 35.42 Z" />
<path fill="#808080" opacity="1.00" d=" M 60.24 35.45 C 62.62 35.12 65.07 35.13 67.45 35.53 C 70.00 36.56 69.81 41.47 66.83 41.59 C 64.65 41.86 62.43 41.85 60.26 41.55 C 57.43 40.99 57.23 35.94 60.24 35.45 Z" />
</g>
<g id="#4c4c4c97">
<path fill="#808080" opacity="0.59" d=" M 38.28 45.38 C 40.22 36.92 43.10 28.69 46.88 20.88 C 47.12 29.65 46.19 38.40 44.47 46.99 C 46.40 49.56 48.04 53.19 46.21 56.24 C 43.37 58.32 40.46 62.82 36.50 60.50 C 34.82 58.67 34.17 56.05 33.02 53.85 C 31.76 50.00 35.49 47.23 38.28 45.38 Z" />
</g>
</svg>
