<?xml version="1.0" encoding="UTF-8" ?>
<!DOCTYPE svg PUBLIC "-//W3C//DTD SVG 1.1//EN" "http://www.w3.org/Graphics/SVG/1.1/DTD/svg11.dtd">
<svg width="80pt" height="80pt" viewBox="0 0 80 80" version="1.1" xmlns="http://www.w3.org/2000/svg">
<g id="#666666c9">
<path fill="#808080" opacity="0.79" d=" M 33.49 20.49 C 37.25 16.93 41.80 14.12 46.90 13.03 C 55.96 10.78 65.86 14.14 72.21 20.85 C 71.40 21.65 70.59 22.44 69.78 23.24 C 64.66 18.06 57.29 14.93 49.95 15.98 C 44.61 16.55 39.77 19.30 35.94 22.98 C 35.12 22.15 34.30 21.32 33.49 20.49 Z" />
<path fill="#808080" opacity="0.79" d=" M 38.77 25.81 C 43.32 21.08 50.31 18.66 56.76 20.30 C 60.66 21.11 63.99 23.41 66.84 26.10 C 66.04 26.93 65.25 27.75 64.45 28.58 C 61.34 25.64 57.43 23.21 53.01 23.29 C 48.51 22.99 44.37 25.22 41.16 28.19 C 40.36 27.40 39.57 26.61 38.77 25.81 Z" />
<path fill="#808080" opacity="0.79" d=" M 44.42 31.42 C 48.89 26.65 56.65 27.02 61.22 31.46 C 60.48 32.37 59.74 33.27 58.99 34.16 C 55.71 30.79 50.21 30.40 46.78 33.79 C 46.19 33.20 45.01 32.01 44.42 31.42 Z" />
<path fill="#808080" opacity="0.79" d=" M 51.21 35.28 C 55.74 32.70 59.27 40.54 54.54 42.45 C 49.98 44.88 46.42 37.09 51.21 35.28 Z" />
</g>
<g id="#828282ff">
<path fill="#808080" opacity="1.00" d=" M 15.58 16.99 C 15.55 13.58 21.87 13.58 21.76 17.07 C 21.92 27.64 21.74 38.22 21.84 48.80 C 19.72 48.81 17.61 48.81 15.49 48.82 C 15.57 38.21 15.37 27.59 15.58 16.99 Z" />
<path fill="#808080" opacity="1.00" d=" M 4.38 52.29 C 5.80 51.56 7.47 51.90 9.00 51.79 C 30.35 51.85 51.70 51.80 73.04 51.82 C 75.12 51.60 77.47 52.92 77.76 55.11 C 78.01 58.41 77.91 61.73 77.84 65.04 C 78.01 67.53 75.49 69.47 73.12 69.24 C 51.06 69.25 29.00 69.25 6.94 69.24 C 4.56 69.50 1.98 67.55 2.16 65.03 C 2.06 62.02 2.06 59.00 2.16 55.98 C 2.06 54.42 3.01 52.98 4.38 52.29 M 55.35 57.49 C 53.29 58.69 52.82 61.86 54.57 63.56 C 56.72 66.13 61.62 64.45 61.48 60.99 C 61.80 57.95 57.84 55.59 55.35 57.49 M 67.26 57.22 C 64.88 58.03 64.03 61.38 65.67 63.29 C 67.48 65.86 72.00 64.97 72.67 61.89 C 73.73 58.88 70.07 55.59 67.26 57.22 Z" />
</g>
</svg>
