<?xml version="1.0" encoding="UTF-8" ?>
<!DOCTYPE svg PUBLIC "-//W3C//DTD SVG 1.1//EN" "http://www.w3.org/Graphics/SVG/1.1/DTD/svg11.dtd">
<svg width="80pt" height="80pt" viewBox="0 0 80 80" version="1.1" xmlns="http://www.w3.org/2000/svg">
<g id="#666666c9">
<path fill="#808080" opacity="0.79" d=" M 36.36 6.69 C 43.81 4.14 52.41 10.21 52.66 18.03 C 53.37 25.10 47.12 31.82 40.01 31.60 C 33.26 31.80 27.18 25.76 27.31 19.02 C 27.14 13.49 31.08 8.24 36.36 6.69 Z" />
<path fill="#808080" opacity="0.79" d=" M 10.36 49.44 C 17.66 46.57 26.46 52.14 27.18 59.89 C 28.53 68.14 20.07 75.98 11.97 73.91 C 5.69 72.71 1.03 66.28 1.88 59.94 C 2.50 55.24 5.82 50.95 10.36 49.44 Z" />
<path fill="#808080" opacity="0.79" d=" M 62.20 49.15 C 69.02 47.11 76.66 51.99 77.94 58.93 C 79.80 66.66 72.85 74.64 64.98 74.24 C 59.30 73.95 54.05 69.66 52.99 64.01 C 51.51 57.63 55.86 50.69 62.20 49.15 Z" />
</g>
<g id="#828282ff">
<path fill="#808080" opacity="1.00" d=" M 28.43 29.69 C 30.55 31.61 32.96 33.18 35.69 34.10 C 32.46 39.58 29.26 45.07 26.09 50.58 C 23.96 48.64 21.47 47.16 18.77 46.16 C 22.08 40.72 25.22 35.19 28.43 29.69 Z" />
<path fill="#808080" opacity="1.00" d=" M 44.50 34.08 C 47.20 33.07 49.62 31.50 51.74 29.55 C 54.90 35.11 58.08 40.65 61.37 46.13 C 58.65 47.09 56.16 48.57 53.99 50.47 C 50.86 44.98 47.71 39.51 44.50 34.08 Z" />
<path fill="#808080" opacity="1.00" d=" M 29.78 57.35 C 36.59 57.39 43.40 57.41 50.22 57.43 C 49.56 60.23 49.66 63.09 50.32 65.87 C 43.44 65.83 36.57 65.82 29.69 65.84 C 30.36 63.04 30.42 60.16 29.78 57.35 Z" />
</g>
</svg>
