<?xml version="1.0" encoding="UTF-8" ?>
<!DOCTYPE svg PUBLIC "-//W3C//DTD SVG 1.1//EN" "http://www.w3.org/Graphics/SVG/1.1/DTD/svg11.dtd">
<svg width="80pt" height="80pt" viewBox="0 0 80 80" version="1.1" xmlns="http://www.w3.org/2000/svg">
<g id="#828282ff">
<path fill="#808080" opacity="1.00" d=" M 11.71 12.66 C 18.88 5.48 28.83 1.33 38.97 1.23 C 46.67 1.06 54.91 2.89 60.69 8.27 C 67.90 14.87 69.22 26.40 64.85 34.93 C 61.20 41.83 53.47 45.06 46.30 46.92 C 45.94 49.23 45.23 51.48 45.06 53.82 C 40.64 53.87 36.23 53.87 31.82 53.86 C 30.72 47.75 29.93 41.57 28.61 35.50 C 33.34 33.47 38.98 34.31 43.44 31.39 C 46.27 29.98 47.69 26.45 46.43 23.51 C 45.15 20.79 41.93 19.83 39.15 19.75 C 32.90 19.62 27.29 23.06 22.68 26.96 C 19.00 22.21 15.39 17.41 11.71 12.66 Z" />
<path fill="#808080" opacity="1.00" d=" M 27.23 60.24 C 34.41 60.23 41.59 60.23 48.77 60.24 C 48.73 66.44 48.74 72.63 48.76 78.82 C 41.59 78.83 34.41 78.83 27.24 78.82 C 27.26 72.63 27.27 66.44 27.23 60.24 Z" />
</g>
</svg>
