<?xml version="1.0" encoding="UTF-8"?>
<!DOCTYPE svg PUBLIC "-//W3C//DTD SVG 1.1//EN" "http://www.w3.org/Graphics/SVG/1.1/DTD/svg11.dtd">
<svg version="1.1" xmlns="http://www.w3.org/2000/svg" xmlns:xlink="http://www.w3.org/1999/xlink" width="100" height="100"  xml:space="preserve">
    <g id="group000000ff">
        <path id="bezier" stroke="none" fill="#0A9D05" d="M 47.15,5 L 52.81,5 C 52.81,6.98 52.81,8.96 52.81,10.94 50.93,10.59 49.02,10.58 47.15,10.94 47.15,8.96 47.15,6.98 47.15,5 Z M 47.15,5" />
        <path id="bezier2" stroke="none" fill="#0A9D05" d="M 30.52,10.91 C 32.17,9.97 33.82,9.02 35.47,8.07 36.46,9.77 37.45,11.47 38.43,13.17 36.7,13.96 35.04,14.91 33.49,16.03 32.5,14.32 31.5,12.62 30.52,10.91 Z M 30.52,10.91" />
        <path id="bezier3" stroke="none" fill="#0A9D05" d="M 61.53,13.16 C 62.52,11.47 63.5,9.77 64.48,8.07 66.13,9.01 67.78,9.97 69.43,10.91 68.45,12.61 67.46,14.32 66.46,16.02 64.91,14.91 63.26,13.96 61.53,13.16 Z M 61.53,13.16" />
        <path id="bezier4" stroke="none" fill="#0A9D05" d="M 41.51,17.84 C 46.53,15.82 52.29,15.7 57.4,17.45 62.42,19.17 66.78,22.71 69.47,27.26 71.9,31.31 72.99,36.15 72.5,40.84 72,44.98 70.27,48.83 68.47,52.55 66.39,56.81 64.04,60.98 62.55,65.49 61.82,67.74 61.29,70.09 61.33,72.47 53.76,72.47 46.19,72.47 38.63,72.47 38.66,69.99 38.06,67.56 37.28,65.22 35.17,59.19 31.68,53.77 29.34,47.83 28.43,45.53 27.71,43.15 27.44,40.69 26.99,36.09 28.06,31.36 30.41,27.38 32.92,23.1 36.89,19.68 41.51,17.84 Z M 43.64,23.12 C 39.59,24.74 36.23,27.98 34.48,31.94 33.3,34.57 32.81,37.52 33.15,40.39 33.59,43.47 34.83,46.35 36.13,49.15 38.87,54.94 42.21,60.55 43.68,66.84 47.87,66.85 52.06,66.84 56.25,66.84 57.79,59.96 61.63,53.93 64.51,47.57 65.57,45.19 66.52,42.73 66.84,40.14 67.16,36.86 66.43,33.52 64.83,30.64 62.84,27.03 59.47,24.18 55.55,22.83 51.72,21.49 47.4,21.59 43.64,23.12 Z M 43.64,23.12" />
        <path id="bezier5" stroke="none" fill="#0A9D05" d="M 21.99,19.39 C 23.71,20.37 25.42,21.36 27.14,22.34 26.01,23.88 25.06,25.54 24.25,27.25 22.55,26.27 20.84,25.3 19.14,24.31 20.09,22.67 21.04,21.03 21.99,19.39 Z M 21.99,19.39" />
        <path id="bezier6" stroke="none" fill="#0A9D05" d="M 72.82,22.34 C 74.53,21.36 76.25,20.37 77.96,19.39 78.92,21.03 79.87,22.67 80.82,24.31 79.12,25.3 77.41,26.27 75.71,27.25 74.89,25.53 73.94,23.88 72.82,22.34 Z M 72.82,22.34" />
        <path id="bezier7" stroke="none" fill="#0A9D05" d="M 16.04,35.92 C 18.04,35.92 20.03,35.92 22.02,35.92 21.9,36.86 21.72,37.78 21.73,38.73 21.72,39.67 21.91,40.6 22.03,41.54 20.03,41.55 18.04,41.54 16.04,41.54 16.04,39.67 16.04,37.8 16.04,35.92 Z M 16.04,35.92" />
        <path id="bezier8" stroke="none" fill="#0A9D05" d="M 77.94,35.92 C 79.93,35.92 81.92,35.92 83.91,35.92 83.91,37.8 83.91,39.67 83.91,41.54 81.92,41.54 79.92,41.55 77.93,41.54 78.05,40.6 78.24,39.67 78.22,38.73 78.23,37.78 78.05,36.85 77.94,35.92 Z M 77.94,35.92" />
        <path id="bezier9" stroke="none" fill="#0A9D05" d="M 19.14,53.15 C 20.86,52.16 22.58,51.18 24.3,50.19 25.02,51.95 25.79,53.7 26.63,55.41 25.08,56.3 23.54,57.2 21.99,58.07 21.04,56.43 20.09,54.79 19.14,53.15 Z M 19.14,53.15" />
        <path id="bezier10" stroke="none" fill="#0A9D05" d="M 75.63,50.18 C 77.36,51.17 79.09,52.16 80.82,53.15 79.87,54.79 78.92,56.43 77.97,58.07 76.4,57.18 74.84,56.29 73.29,55.38 74.13,53.68 74.91,51.94 75.63,50.18 Z M 75.63,50.18" />
        <path id="bezier11" stroke="none" fill="#0A9D05" d="M 40.68,75.37 C 40.94,75.29 41.22,75.28 41.49,75.27 47.21,75.28 52.94,75.27 58.66,75.28 59.43,75.29 60.16,75.68 60.65,76.26 61.56,77.29 61.53,79.02 60.57,80.01 60.04,80.59 59.26,80.94 58.47,80.9 52.75,80.9 47.02,80.9 41.29,80.9 39.84,80.88 38.59,79.52 38.66,78.09 38.6,76.86 39.5,75.69 40.68,75.37 Z M 40.68,75.37" />
        <path id="bezier12" stroke="none" fill="#0A9D05" d="M 39.86,84.19 C 40.63,83.6 41.64,83.71 42.55,83.71 47.86,83.71 53.17,83.72 58.47,83.71 59.39,83.67 60.29,84.15 60.81,84.9 61.66,86.08 61.4,87.92 60.2,88.78 59.59,89.3 58.76,89.37 57.99,89.34 56.9,92.4 53.98,94.72 50.71,94.96 L 49.23,94.96 C 45.97,94.71 43.05,92.39 41.97,89.34 41.11,89.39 40.19,89.25 39.56,88.62 38.24,87.48 38.38,85.14 39.86,84.19 Z M 39.86,84.19" />
    </g>
</svg>
