<?xml version="1.0" encoding="UTF-8"?>
<!DOCTYPE svg PUBLIC "-//W3C//DTD SVG 1.1//EN" "http://www.w3.org/Graphics/SVG/1.1/DTD/svg11.dtd">
<svg version="1.1" xmlns="http://www.w3.org/2000/svg" xmlns:xlink="http://www.w3.org/1999/xlink" width="100" height="100"  xml:space="preserve">
    <g id="group000000ff">
        <path id="bezier4" stroke="none" fill="#808080" d="M 41.51,17.84 C 46.53,15.82 52.29,15.7 57.4,17.45 62.42,19.17 66.78,22.71 69.47,27.26 71.9,31.31 72.99,36.15 72.5,40.84 72,44.98 70.27,48.83 68.47,52.55 66.39,56.81 64.04,60.98 62.55,65.49 61.82,67.74 61.29,70.09 61.33,72.47 53.76,72.47 46.19,72.47 38.63,72.47 38.66,69.99 38.06,67.56 37.28,65.22 35.17,59.19 31.68,53.77 29.34,47.83 28.43,45.53 27.71,43.15 27.44,40.69 26.99,36.09 28.06,31.36 30.41,27.38 32.92,23.1 36.89,19.68 41.51,17.84 Z M 43.64,23.12 C 39.59,24.74 36.23,27.98 34.48,31.94 33.3,34.57 32.81,37.52 33.15,40.39 33.59,43.47 34.83,46.35 36.13,49.15 38.87,54.94 42.21,60.55 43.68,66.84 47.87,66.85 52.06,66.84 56.25,66.84 57.79,59.96 61.63,53.93 64.51,47.57 65.57,45.19 66.52,42.73 66.84,40.14 67.16,36.86 66.43,33.52 64.83,30.64 62.84,27.03 59.47,24.18 55.55,22.83 51.72,21.49 47.4,21.59 43.64,23.12 Z M 43.64,23.12" />
        <path id="bezier11" stroke="none" fill="#808080" d="M 40.68,75.37 C 40.94,75.29 41.22,75.28 41.49,75.27 47.21,75.28 52.94,75.27 58.66,75.28 59.43,75.29 60.16,75.68 60.65,76.26 61.56,77.29 61.53,79.02 60.57,80.01 60.04,80.59 59.26,80.94 58.47,80.9 52.75,80.9 47.02,80.9 41.29,80.9 39.84,80.88 38.59,79.52 38.66,78.09 38.6,76.86 39.5,75.69 40.68,75.37 Z M 40.68,75.37" />
        <path id="bezier12" stroke="none" fill="#808080" d="M 39.86,84.19 C 40.63,83.6 41.64,83.71 42.55,83.71 47.86,83.71 53.17,83.72 58.47,83.71 59.39,83.67 60.29,84.15 60.81,84.9 61.66,86.08 61.4,87.92 60.2,88.78 59.59,89.3 58.76,89.37 57.99,89.34 56.9,92.4 53.98,94.72 50.71,94.96 L 49.23,94.96 C 45.97,94.71 43.05,92.39 41.97,89.34 41.11,89.39 40.19,89.25 39.56,88.62 38.24,87.48 38.38,85.14 39.86,84.19 Z M 39.86,84.19" />
    </g>
</svg>
