<?xml version="1.0" encoding="UTF-8"?>
<!DOCTYPE svg PUBLIC "-//W3C//DTD SVG 1.1//EN" "http://www.w3.org/Graphics/SVG/1.1/DTD/svg11.dtd">
<svg version="1.1" xmlns="http://www.w3.org/2000/svg" xmlns:xlink="http://www.w3.org/1999/xlink" width="100" height="100"  xml:space="preserve">
    <g id="group">
        <path id="bezier2" stroke="none" fill="#0A9D05" d="M 47.45,4.12 C 49.1,4.08 50.76,4.08 52.41,4.12 54.67,4.19 56.61,6.27 56.56,8.53 56.58,20.26 56.57,31.99 56.57,43.72 56.61,45.38 55.65,47.03 54.16,47.77 52.85,48.46 51.33,48.22 49.91,48.26 48.55,48.22 47.1,48.45 45.84,47.8 44.31,47.08 43.32,45.42 43.36,43.73 43.35,32.01 43.35,20.29 43.36,8.57 43.3,6.31 45.19,4.23 47.45,4.12 Z M 47.45,4.12" />
        <path id="bezier3" stroke="none" fill="#0A9D05" d="M 20.43,19.65 C 25.06,15.24 30.69,11.9 36.75,9.9 36.75,15.49 36.77,21.09 36.74,26.68 30.9,29.88 26.3,35.27 24.07,41.55 22.01,47.27 21.91,53.69 23.82,59.47 26.1,66.39 31.21,72.34 37.74,75.55 43.06,78.28 49.31,79.08 55.17,77.95 62.77,76.51 69.64,71.64 73.57,64.96 76.68,59.85 77.98,53.68 77.29,47.74 76.37,38.95 70.89,30.87 63.17,26.66 63.16,21.07 63.16,15.48 63.17,9.9 74.16,13.47 83.59,21.64 88.58,32.1 92.35,39.73 93.64,48.52 92.45,56.94 91.52,63.62 88.98,70.05 85.11,75.56 81.1,81.31 75.66,86.06 69.41,89.24 63.18,92.44 56.15,94.04 49.16,93.9 41.27,93.77 33.43,91.4 26.8,87.1 19.29,82.28 13.33,75.06 10.06,66.73 6.98,59.01 6.25,50.37 7.9,42.22 9.63,33.64 14.1,25.66 20.43,19.65 Z M 20.43,19.65" />
    </g>
</svg>
