<?xml version="1.0" encoding="UTF-8"?>
<!DOCTYPE svg PUBLIC "-//W3C//DTD SVG 1.1//EN" "http://www.w3.org/Graphics/SVG/1.1/DTD/svg11.dtd">
<svg version="1.1" xmlns="http://www.w3.org/2000/svg" xmlns:xlink="http://www.w3.org/1999/xlink" width="100" height="100"  xml:space="preserve">
    <g id="group828282ff">
        <path id="bezier" stroke="none" fill="#000000" d="M 60.05,2.19 C 65.8,2.16 71.55,2.13 77.28,2.56 77.23,10.19 77.31,17.81 77.23,25.44 80.32,25.45 83.4,25.47 86.49,25.53 80.39,32.16 74.52,39.01 68.53,45.75 62.64,38.93 56.61,32.21 50.65,25.45 53.76,25.45 56.88,25.47 60,25.45 59.99,17.71 59.92,9.95 60.05,2.19 Z M 60.05,2.19" />
        <path id="bezier2" stroke="none" fill="#000000" d="M 18.53,20.95 C 18.33,16.8 22.32,13.24 26.41,13.69 36,13.6 45.6,13.69 55.19,13.68 55.17,15.99 55.17,18.31 55.17,20.63 53.08,20.71 51,20.81 48.95,21.19 41.99,22.49 34.85,20.91 27.89,22.03 25.79,23.2 26.09,25.63 26.05,27.65 26.13,44.61 26.04,61.59 26.09,78.55 25.75,80.87 27.91,82.83 30.17,82.56 41,82.61 51.84,82.57 62.67,82.57 65.09,82.92 67.44,80.93 66.99,78.4 67.03,69.21 67.05,60.03 66.92,50.84 70.41,50.49 73.03,48.29 75.03,45.55 74.93,59.97 75.09,74.41 74.96,88.84 75.07,92.69 71.51,95.97 67.72,95.95 53.88,96.04 40.01,96 26.16,95.97 21.83,96.19 18,92.19 18.51,87.85 18.52,65.55 18.44,43.24 18.53,20.95 Z M 44.33,86.81 C 42.21,88.72 43.79,92.52 46.49,92.75 49.05,93.4 51.73,90.01 50.25,87.8 49.4,85.36 45.95,84.85 44.33,86.81 Z M 44.33,86.81" />
        <path id="bezier3" stroke="none" fill="#000000" d="M 40.64,33.67 C 44.51,33.67 48.36,33.68 52.23,33.67 52.52,42.17 50.17,50.47 49.27,58.88 47.49,58.88 45.72,58.89 43.95,58.91 42.84,50.49 40.87,42.17 40.64,33.67 Z M 40.64,33.67" />
        <path id="bezier4" stroke="none" fill="#000000" d="M 41.32,61.88 C 44.84,61.88 48.37,61.87 51.91,61.88 51.91,64.93 51.91,67.97 51.92,71.03 48.37,71.04 44.84,71.03 41.29,71.03 41.32,67.97 41.32,64.93 41.32,61.88 Z M 41.32,61.88" />
    </g>
</svg>
