<?xml version="1.0" encoding="UTF-8"?>
<!DOCTYPE svg PUBLIC "-//W3C//DTD SVG 1.1//EN" "http://www.w3.org/Graphics/SVG/1.1/DTD/svg11.dtd">
<svg version="1.1" xmlns="http://www.w3.org/2000/svg" xmlns:xlink="http://www.w3.org/1999/xlink" width="100" height="100"  xml:space="preserve">
    <g id="welcome">
        <g id="artboard36">
            <g id="remoteicon3">
                <path id="bezier" stroke="#e2e200" stroke-width="2" stroke-miterlimit="4" fill="none" d="M 37.3,27.1 L 61.7,27.1 C 65.7,27.1 68.9,30.3 68.9,34.3 L 68.9,90.7 C 68.9,94.7 65.7,97.9 61.7,97.9 L 37.3,97.9 C 33.3,97.9 30.1,94.7 30.1,90.7 L 30.1,34.3 C 30.1,30.3 33.3,27.1 37.3,27.1 Z M 37.3,27.1" />
                <g id="group5">
                    <path id="bezier2" stroke="none" fill="#e2e200" d="M 52.96,42.54 C 54.88,44.45 54.88,47.55 52.96,49.46 51.05,51.38 47.95,51.38 46.04,49.46 44.12,47.55 44.12,44.45 46.04,42.54 47.95,40.62 51.05,40.62 52.96,42.54 Z M 52.96,42.54" />
                    <path id="bezier3" stroke="none" fill="#e2e200" d="M 61.5,46 C 61.5,39.4 56.1,34.1 49.5,34.1 42.9,34.1 37.5,39.4 37.5,46 37.5,52.6 42.9,57.9 49.5,57.9 56.1,57.9 61.5,52.6 61.5,46 Z M 38.5,46 C 38.5,40 43.4,35.1 49.5,35.1 55.6,35.1 60.5,40 60.5,46 60.5,52 55.6,57 49.5,57 43.4,57 38.5,52.1 38.5,46 Z M 38.5,46" />
                </g>
                <g id="oval7_x2B_Oval8_x2B_Oval9">
                    <path id="bezier4" stroke="none" fill="#e2e200" d="M 40.5,20.1 L 42.4,21.9 C 46.4,17.9 52.9,17.9 56.8,21.9 L 58.7,20.1 C 53.7,15.1 45.5,15.1 40.5,20.1 Z M 40.5,20.1" />
                    <path id="bezier5" stroke="none" fill="#e2e200" d="M 36.2,15.2 L 38.1,17 C 44.3,10.9 54.3,10.9 60.5,17 L 62.4,15.2 C 55.1,8 43.4,8 36.2,15.2 Z M 36.2,15.2" />
                    <path id="bezier6" stroke="none" fill="#e2e200" d="M 31.7,10.1 L 33.6,12 C 42.2,3.5 56,3.5 64.6,12 L 66.5,10.2 C 56.8,0.6 41.3,0.6 31.7,10.1 Z M 31.7,10.1" />
                </g>
            </g>
        </g>
    </g>
</svg>
