<?xml version="1.0" encoding="UTF-8"?>
<!DOCTYPE svg PUBLIC "-//W3C//DTD SVG 1.1//EN" "http://www.w3.org/Graphics/SVG/1.1/DTD/svg11.dtd">
<svg version="1.1" xmlns="http://www.w3.org/2000/svg" xmlns:xlink="http://www.w3.org/1999/xlink" width="100" height="100"  xml:space="preserve">
    <path id="bezier" stroke="none" fill="#808080" d="M 84.22,77 L 35.33,77 35.33,77 C 29.93,77 25.56,72.97 25.56,68 L 25.56,14 25.56,14 C 25.56,9.03 29.93,5 35.33,5 L 40.22,5 40.22,27.5 50,20.75 59.78,27.5 59.78,5 84.22,5 84.22,5 C 89.62,5 94,9.03 94,14 L 94,68 94,68 C 94,72.97 89.62,77 84.22,77 Z M 74.44,86 L 74.44,95 15.78,95 15.78,95 C 10.38,95 6,90.97 6,86 L 6,23 15.78,23 15.78,86 74.44,86 Z M 74.44,86" />
</svg>
