<?xml version="1.0" encoding="UTF-8" ?>
<!DOCTYPE svg PUBLIC "-//W3C//DTD SVG 1.1//EN" "http://www.w3.org/Graphics/SVG/1.1/DTD/svg11.dtd">
<svg width="80pt" height="80pt" viewBox="0 0 80 80" version="1.1" xmlns="http://www.w3.org/2000/svg">
<g id="#6e6e6eff">
<path fill="#808080" opacity="1.00" d=" M 43.61 9.50 C 54.81 9.65 65.63 16.15 70.93 26.03 C 73.68 30.69 74.47 36.12 75.06 41.40 C 74.19 41.40 72.46 41.39 71.60 41.38 C 72.05 26.29 58.67 12.56 43.53 12.83 C 43.55 12.00 43.59 10.33 43.61 9.50 Z" />
<path fill="#808080" opacity="1.00" d=" M 43.47 16.98 C 56.34 16.89 67.65 28.40 67.39 41.27 C 66.60 41.27 65.04 41.28 64.25 41.28 C 64.06 34.48 60.77 27.78 55.07 23.95 C 51.74 21.31 47.45 20.73 43.40 20.09 C 43.41 19.31 43.45 17.76 43.47 16.98 Z" />
<path fill="#808080" opacity="1.00" d=" M 3.07 71.00 C 12.73 54.72 22.34 38.42 32.00 22.15 C 41.66 38.42 51.27 54.72 60.93 71.00 C 41.64 71.00 22.36 71.00 3.07 71.00 M 29.27 40.07 C 29.00 45.76 29.54 51.42 30.47 57.03 C 31.17 57.04 32.57 57.06 33.27 57.08 C 33.95 51.43 35.04 45.80 34.62 40.09 C 32.84 40.08 31.05 40.08 29.27 40.07 M 29.18 58.77 C 29.17 60.50 29.16 62.23 29.14 63.96 C 30.99 63.96 32.84 63.96 34.70 63.96 C 34.68 62.23 34.68 60.49 34.67 58.76 C 32.84 58.77 31.01 58.77 29.18 58.77 Z" />
<path fill="#808080" opacity="1.00" d=" M 43.30 24.85 C 51.88 25.10 59.51 32.46 59.35 41.17 C 58.58 41.16 57.03 41.14 56.25 41.13 C 56.09 34.21 50.20 28.22 43.25 28.11 C 43.27 27.03 43.29 25.94 43.30 24.85 Z" />
</g>
</svg>
