<?xml version="1.0" encoding="UTF-8" ?>
<!DOCTYPE svg PUBLIC "-//W3C//DTD SVG 1.1//EN" "http://www.w3.org/Graphics/SVG/1.1/DTD/svg11.dtd">
<svg width="40pt" height="40pt" viewBox="0 0 40 40" version="1.1" xmlns="http://www.w3.org/2000/svg">
<g id="#828282ff">
<path fill="#808080" opacity="1.00" d=" M 6.70 14.25 C 10.11 5.41 23.60 2.28 29.63 10.03 C 28.71 11.48 27.42 14.02 25.28 12.83 C 22.02 11.32 17.91 10.50 14.83 12.90 C 12.46 14.38 12.29 17.49 10.55 19.45 C 7.35 20.35 3.89 19.66 0.58 19.78 C 0.48 18.04 0.43 16.29 0.39 14.54 C 2.49 14.36 4.60 14.34 6.70 14.25 Z" />
<path fill="#808080" opacity="1.00" d=" M 18.26 14.30 C 22.28 12.93 26.76 16.74 25.88 20.94 C 25.44 25.63 18.85 27.65 15.75 24.19 C 12.60 21.28 14.06 15.33 18.26 14.30 Z" />
<path fill="#808080" opacity="1.00" d=" M 29.48 20.54 C 32.67 19.67 36.09 20.33 39.37 20.22 C 39.46 21.97 39.49 23.73 39.53 25.48 C 37.50 25.63 35.46 25.66 33.43 25.76 C 29.94 33.90 18.60 37.17 11.59 31.56 C 9.64 29.66 11.64 27.10 13.76 26.56 C 16.94 28.46 21.09 29.63 24.47 27.49 C 27.25 26.13 28.01 22.98 29.48 20.54 Z" />
</g>
</svg>
