<?xml version="1.0" encoding="UTF-8"?>
<!DOCTYPE svg PUBLIC "-//W3C//DTD SVG 1.1//EN" "http://www.w3.org/Graphics/SVG/1.1/DTD/svg11.dtd">
<svg version="1.1" xmlns="http://www.w3.org/2000/svg" xmlns:xlink="http://www.w3.org/1999/xlink" width="100" height="100"  xml:space="preserve">
    <g id="group">
        <g id="ffffffff">
            <path id="bezier" stroke="none" fill="#FFFFFF" d="M 4,4 L 45.9,4 C 34.47,5.91 23.43,11.66 16.57,21.17 34.78,21.77 53.03,20.94 71.22,21.6 75.8,21.69 78.9,25.97 78.76,30.32 76.36,34.14 72.78,36.97 69.7,40.17 59.23,50.68 48.65,61.06 38.3,71.68 55.51,71.58 72.73,71.97 89.95,71.49 97.13,58.83 98.38,42.88 92.21,29.57 86.17,15.78 72.47,6.25 57.71,4 L 99.61,4 99.61,93.23 4,93.23 4,4 Z M 13.93,24.72 C 3.32,41.8 5.88,65.86 20.55,79.82 32.28,92.11 51.27,94.75 67.03,89.97 74.34,86.89 82.47,82.78 86,75.31 68.4,75.37 50.82,75.38 33.22,75.34 28.18,75.46 22.78,70.94 24.5,65.52 37.17,51.37 52.13,39.25 64.38,24.75 47.55,24.77 30.74,24.83 13.93,24.72 Z M 13.93,24.72" />
        </g>
        <g id="e5001cff">
            <path id="bezier2" stroke="none" fill="rgb(220, 0, 23)" d="M 45.51,4 L 57.29,4 C 72.01,6.25 85.67,15.81 91.69,29.61 97.85,42.94 96.6,58.93 89.43,71.61 72.27,72.09 55.09,71.7 37.93,71.79 48.25,61.16 58.8,50.76 69.24,40.23 72.32,37.03 75.88,34.19 78.28,30.37 78.42,26.01 75.33,21.72 70.76,21.63 52.62,20.97 34.42,21.8 16.26,21.2 23.1,11.67 34.11,5.91 45.51,4 Z M 45.51,4" />
            <path id="bezier3" stroke="none" fill="rgb(220, 0, 23)" d="M 13.63,24.76 C 30.39,24.87 47.16,24.81 63.93,24.79 51.72,39.31 36.81,51.45 24.16,65.63 22.46,71.05 27.84,75.59 32.87,75.46 50.42,75.51 67.95,75.49 85.5,75.43 81.97,82.92 73.87,87.04 66.58,90.12 50.86,94.91 31.93,92.26 20.23,79.95 5.6,65.97 3.05,41.87 13.63,24.76 Z M 13.63,24.76" />
        </g>
    </g>
</svg>
